<svg xmlns="http://www.w3.org/2000/svg" viewBox="0 0 512 512" fill="none">
  <rect width="512" height="512" rx="128" fill="#4f46e5"/>
  <rect x="96" y="128" width="320" height="288" rx="32" fill="#ffffff" fill-opacity="0.95"/>
  <path d="M96 192H416V144C416 135.163 408.837 128 400 128H112C103.163 128 96 135.163 96 144V192Z" fill="#3730a3"/>
  <circle cx="160" cy="128" r="16" fill="#f87171"/>
  <circle cx="352" cy="128" r="16" fill="#f87171"/>
  <rect x="144" y="240" width="64" height="48" rx="8" fill="#3b82f6"/>
  <rect x="224" y="240" width="64" height="48" rx="8" fill="#10b981"/>
  <rect x="304" y="240" width="64" height="48" rx="8" fill="#f59e0b"/>
  <rect x="144" y="304" width="64" height="48" rx="8" fill="#6366f1"/>
  <rect x="224" y="304" width="64" height="48" rx="8" fill="#ec4899"/>
  <circle cx="336" cy="328" r="20" fill="#10b981"/>
  <path d="M328 328L334 334L344 322" stroke="white" stroke-width="4" stroke-linecap="round" stroke-linejoin="round"/>
</svg>

